<svg xmlns="http://www.w3.org/2000/svg" width="595" height="842" viewBox="0 0 595 842"><path fill="#CFCFD1" d="M193 677c0-8.28 47.68-15 106.5-15S406 668.72 406 677s-47.68 15-106.5 15S193 685.28 193 677z"/><path fill="#272730" d="M271 162h-3s.95-5-3-5c-15.62 0-44 20.16-49 36.98-3.92 13.2-2.82 34.17-1.76 49.68-.62 5.93-3.74 8.68-10.24 12.3 5.5-1.12 6.88-1.37 10.88-6.05l.12 5.05c.83 14.66-4.17 19.83-4 32.99.17 13.16 8.83 16.99 9 23.99s-6 120.96-6 120.96c47 15.99 111.17 1.41 114 2-11-35.99.88-39.24-2.75-76.04 4.26 3.69 2.44 7.75 7 7.44-5.5-6.13 1.13-1-6.45-16.11-.01-2.65.05-4.79.2-6.26 1.5-14.33 5.38-10.67 6-30.99.56-18.31-3.5-16.99-5-31.99-.27-2.7.27-11.72.62-15.62.88 4.63 2.5 6 7 9.12-4.37-5.62-4-6.87-6.05-15.68 1.97-17.47 3.91-40.77-4.57-64.79-1.61-4.57-3.52-8.6-5.64-12.16 2.2-4.58 1.26-4.14 1.26-7.7 0 0-1.06 3.93-2.81 3.75-.75-.69-1.57-1.29-3.7-3.51-10.1-12.15-24.63-16.56-32.59-17.94-.68-.23-.52-.2-1.33-.48.72-2.35 5.81-4.94 5.81-4.94s-5.01.38-7.71 4.87c-1.07-.02-1.86.03-2.29.13-3.83.83-4 6-4 6z"/><path d="M295.17 337.76l-1.34 56.65 5.84-20.49 10.16 14.66M223.67 349.43L217 386.91l8.33-16.49 3.67 24.49v-40.98M320 227.97c-6.25 54.98-36.75 64.98-41 65.98-.25 3 0 11.99 0 11.99l-29-2v-11.99c-3.5-.75-28-11.5-33-69.98 13.25-2.75 104.88-10.76 103 6z"/><path fill="#3D3D45" d="M262.38 164.12c-.38 13.87-24.13 13.5-32.38 17.87 12-12 20-18.74 32.38-17.87zM282 164c9-1.75 18.25 13.87 17 13.99-2.62-8.62-27.62-10.87-17-13.99z"/><path fill="#C7BBAF" d="M252 283.95s3.67 10.66-1 16c-2 2.6-5.78 5.78-10.23 9.03-11.97 8.73 47.47 9.7 41.73 2.66-3.94-4.83-6.5-8.7-6.5-8.7l-1-16.99-23-2zM296.5 342.68c12.25 47.98 11.5 62.56 11.5 109.21-3.08 7.62-3.17 14.83-.33 21.32 3 6.9-.5 11.17 3.33 9.67 4.83-1.5-1.82-13.79 1.5-12.33 5.99 2.63 7.19 19.76 10.89 20.59.92.48 2.55-.52 3.48-.31.44 1.42.82 2.36 2.13 2.04-2-24.65-6.75-23.74-11.34-40.01 3.01-48.62-8.91-108.68-12.91-122.93-2.08-5.66-1.25-12.99-8.75-12.16-5.07 2.6.5 24.91.5 24.91zM225.43 346.54c-7.42 49.64-12.1 61.03-7.81 108.1 3.84 7.19 4.66 14.25 2.5 20.89-2.28 7.03 1.63 10.85-2.32 9.77-4.95-.99 1.15 8.1-2.43 9.28-.86.55-2.58-.26-3.48.04-.29 1.42-.56 2.37-1.9 2.19-1.31-28.72-5.74-17.68-1.89-40.26-6.77-55.64 5.09-107.27 7.65-122.18 13.06-5.01 9.68 12.17 9.68 12.17z"/><path fill="#9F968C" d="M253 288.95v4c10.17 5.66 22 1 22 1v-4l-22-1zM301 360.92c.51-.08 10-2 10-2l-.25-7.24-11.25 3.12s.75 6.25 1.5 6.12zM210 364.92l12 4 1.38-7.75-12.26-3.62M215 469.88c-2.17.84 1 16 1 16s1.63-17.01-1-16z"/><path fill="#C7BBAF" d="M271 161h-3c-.12 0 .21 4.25-.17 9.34-.41 5.26-1.58 11.4-4.83 14.65-20.5 14.66-32 5.5-43 25.99-6.25-1-9.5.5-10 5 0 9.49 11 7.99 11 7.99s4.75 67.98 44 67.98c43.12 0 51-61.98 51-61.98s10.12 1.63 10-7c-.12-8.62-12-4-12-4s2.5-15.49-26-31.98c-8.17-4.67-17.55-5.95-17.43-16.45.05-4.92.43-9.54.43-9.54z"/><path fill="#9F968C" d="M252 219.97c.12 6.25-2.12 10.25-8.25 9.25-13.25-2.87-5.75-8.25-5.75-8.25s14.67-6.49 14-1zM280.91 222.97c-.13 6.25 2.12 10.25 8.25 9.25 13.25-2.87 5.75-8.25 5.75-8.25s-14.67-6.49-14-1z"/><path fill="#272730" d="M295 222.47c0-3.58-2.91-6.49-6.5-6.49s-6.5 2.91-6.5 6.49c0 3.59 2.91 6.5 6.5 6.5s6.5-2.91 6.5-6.5zM251 219.47c0-3.58-2.91-6.49-6.5-6.49s-6.5 2.91-6.5 6.49c0 3.59 2.91 6.5 6.5 6.5s6.5-2.91 6.5-6.5z"/><path fill="#9F968C" d="M267 243.97c-3.31 0-7.88-5.44-5-5 6.5 2.12 3.38 2.12 10 0 2.44-.69-1 5-5 5z"/><path fill="#272730" d="M265.95 258.96c3.46 0 10.31 5.37 7.31 4.94-5.29-.8-10.95-2-14.63-2-1.38 0 3.14-2.94 7.32-2.94zM285 199.98c11.17 1.17 21 11 21 11-6.2-13.37-19.09-18-19.09-18s-4.91 2.5-1.91 7zM252.54 199.48c-10.75.22-23.54 7.5-23.54 7.5 10.05-12.31 22.74-13.98 22.74-13.98s3.59 1.98.8 6.48z"/><path fill="#9F968C" d="M322 224.97c.74-4.06-5-3-5-3s4.5 5.75 5 3zM214.07 218.97c-.74-4.06 5-2.99 5-2.99s-4.5 5.74-5 2.99z"/><path fill="#0F0F19" d="M396 669.81c-.17 2-3 8-3 8-37.33 4.83-49.67-4.5-64-9-.5 3.16-1 11.99-1 11.99h-25c-3-30.48 1.12-33.11-.38-42.98 4.13-2.25 13.21-3.36 15.38-3.5 8 27.24 61.17 35.16 78 35.49zM254 644.82c2.09 8.02 9.81 14.72 8.46 33.36-.1 1.4.29 4-3.83 4.38-10.11.93-27.88.12-36.51-.01-4 .13-5.14-3.56-5.05-5.11.75-13.39 8.9-20.94 12.93-36.62 3-.63 2.16-3 3.18-4.29 5.28-6.72 16.42-8.79 20.82 8.29z"/><path fill="#3F3F47" d="M231 444.89c-.25.5 68-2 68-2l16 146.95 5 1c-6.25 17.99-1 44.98-1 44.98s-8.75.25-17 6c2.62-20.37-5-48.98-5-48.98l5-2-18-108.96c-20.25-1.5-31 6-31 6l-4 106.96 4 2c-7.83 30.48 1 46.98 1 46.98s-11.75-4.25-26 2c9.67-16.33 6-34.99 6-34.99.67-4.5-2-13.99-2-13.99l3-1s-3.75-151.45-4-150.95z"/><path fill="#323239" d="M243 493.87c3.06-3.5 10-6.62 10-6.62v3.62c-1.56-1.06-4.56 0-10 3zM284 481.88l1 4s3.94-2.19 15-1c-8.44-3.13-16-3-16-3zM231 444.89c-.25.5 68-2 68-2l1.88 17.31s-42.38.44-69.03 12.34c-.45-16.48-.78-27.79-.85-27.65z"/><path fill="#C7BBAF" d="M300 516.87l4-1-2 2.99 4 1-4 2h-2l-3 1v-2l-4-1 4-1"/><path fill="#9F968C" d="M300 516.87l4-1-.78 1.17-2.53.86-2.19 2.09-3.28.43-2.22-.56 4-1"/><path fill="#323239" d="M241.69 594.21c-4.31-.87-6.69.63-6.69.63v2s2.38-1.5 6.69-2.63zM243.88 593.9c2.5-.63 5.12-.06 5.12-.06v2s-1.94-1.32-5.12-1.94zM302 590.84v-2c6.5-3 9.06-2.06 12.62-1 .13.94.38 2 .38 2-9.62-1-13 1-13 1z"/><path fill="#3F3F47" d="M223 670.81c-2.01 2 34.67 2 34.67-.33-1.17-3.34-29.67-4.67-34.67.33zM246 302.94c14.67 15.83 34 3 34 3s6.91 5.03 18.99 11.04c6.76 3.71 11.26 22.95 12.01 37.69-7.5 1.75-15 3.25-15 3.25.67 24.66-4.67 35.16 5.83 98.13-63.66-1.66-71.83 12.83-71.83 12.83 2.67-18.32-1.5-98.63-2-103.96-9.5.5-18.5-4.66-19-5 2-17.99 2.25-30.99 8.06-36.61 6.69-4.87 22.94-14.37 28.94-20.37z"/><path fill="#323239" d="M246 302.94c14.67 15.83 34 3 34 3s.79.81 2.38 2.13c-3.82 7.37-26.26 15.55-39.47-2.32 1.14-.96 2.19-1.91 3.09-2.81z"/><g fill="#CC3808"><path d="M237.92 355.33l-5.92 6.81 6.07 3.41-3.53 9.37 5.91-10.22-5.22-2.56M244.68 355.33l-2.54 11.07 6.76 3.41-4.38-4.26M248.06 366.4c0-.96 4.22-14.47 4.22-14.47s8.45 15.96 8.45 16.18c0 .21-7.76-10.52-7.76-10.52s-4.91 9.77-4.91 8.81z"/><path d="M257.35 355.33l.24.31 6.68 7.36-3.54 11.07 10.14-17.89-5.07 4.26M270.03 360.44l1.69 11.07h6.76l-5.23-1.55-.73-3.7 4.27-1.71-4.79-.07-.7-3.16 4.64-2.58M279.32 352.78v17.88l1.54-14.62 6.07 2.55-4.23 5.26s8.19 4.3 8.3 4.51c.1.22-5.92-5.51-5.92-5.51l4.07-5.11-9.83-4.96z"/></g><path fill="#323239" d="M257 429.9c-4.08-1.19 26-12 26-12s-10.5 16.5-26 12z"/></svg>