<svg xmlns="http://www.w3.org/2000/svg" width="595" height="842" viewBox="0 0 595 842"><path fill="#323239" d="M193 677c0-8.28 47.68-15 106.5-15S406 668.72 406 677s-47.68 15-106.5 15S193 685.28 193 677z"/><path fill="#52FFFF" opacity=".8" d="M250.5 274c1.75 3.5 3.88 0 3.88 0s2 4.12 6 0c4.24 3.88 6.87 0 6.87 0 4.63 4 7.25 0 7.25 0 3.88 3.75 5.75 0 5.75 0 1.87 3.88 3.75 0 3.75 0 2 6 .75 9.08-17.25 8.75-17 0-18.63-5.13-16.25-8.75zM259 294c2.38-3 7.5-1.25 9.25 1.75-1.58 3.25-9.58 4.58-9.25-1.75zM260 286c2.38-3 6.5-2.25 8.25.75-1.58 3.25-8.58 5.58-8.25-.75zM259 304c-.25-4.12 6.62-2.12 8.25 1.75.37 1.63-7.75 5.75-8.25-1.75zM216.67 339.83c-3.4-.97-1.67-5.83-5.17-2.16-1.83 4 1.83 5.75 2.5 9.08-2.17 13.08-4.75 27.75-3.22 47.96-1.11 2.96-6.5.73-7.01 6-.65 6.54 2.4 2.79 7.56 4.46 3.29 1.33 1.92 3.08 6.68.72 2.11-7.64-3.76-6.89-3.76-9.64-4.25-18.37 2.25-38.75 5.08-48.75.5-4 3.84 1.67 5.5-5.33.67-4.67-3.33-.96-8.16-2.34zM304 342c3.62-1.38 5.38-7.88 6 0-.38 3.25-4 5-4 5 3.88 15.88 6 40 6 40-.38 3.5 5.5.75 5 7-1.62 3.5-1.25 0-5 0-5.25 0-7.88 3.88-8-1 .5-5.62 4.75-1.75 5-5 .5-6.75-1.25-24.25-5-39-2.88-2.12-7.38.25-6-6 1.62-5.12 2.5.38 6-1zM273.75 310.5C273.5 317.25 301 325.67 306 325c-1.25-7.75-27.5-11.5-32.25-14.5zM250.25 310.25c0 7.5-32.25 17-31.5 15.5 1.5-6 20.75-10.5 31.5-15.5zM211.25 412.31c-1.37 2.25-5.63-1.19-5.75 2.44.5 3.81 3.06 4.75 3.06 4.75s-.37 14.19.69 23.5c.13 3.62-4 4.62-1.75 7.75 1.62 1.69 2.69-3 5.88-2.69 1.68.25 3 .38 3.56-1.68-.44-3.44-3.25-1.5-4.19-3.5-1.25-6.88-1.56-23.26-1.56-23.26 1.87-1 5.81-3.37 3.81-6.62-2.25-6.5-2.25-1.94-3.75-.69zM313.22 404.31c-2.34 2.13-6.47-4.81-6.47 4.63.28 2.72 3.92 2.06 3.92 2.06s2.71 11.81 1.77 32.69c-.34 3-5.27 2.31-4.11 6.98 2.61 1.52 2.36-1.05 5.17-1.34 6.5-.5 4.5.34 4.5-3.16-.31-2.79-2.83-2.5-2.83-2.5 1.64-10.11-.67-33.67-.67-33.67.53-.25 4.83.96 3.38-3.75-1.17-4.17-3.44-3.25-4.66-1.94zM214 451s-9.5 2-6 26c7.5 0 14-5 14-5-1-7-8-21-8-21zM243.5 482.33c5.67.84 7.83-.83 7.5 4.67.17 4-6 3-6 3-2.83 6.5-2 41-2 41-.5 5 9 2.5 8.67 7.17-1.67 6.66-6 1.83-10.67 1-5-.84-6.17 7.83-10-3.17-1.67-5 5-4 5-4s2.33-33 5-43c-3.5-.83-9.83-6.17-5-12 3.67-1.17 3.83 4.33 7.5 5.33zM291 481c3.75-1.75 5.58-9 8.83-5 4 7.5-3.83 10-3.83 10 4.75 16.25 9 43 9 43 0 5.25 6.5 3 6 9.5-.67 2.5-7 .5-7 .5s-9.67 6-10 3c-1.25-12.25 3.75-3.5 4-11-.25-21-8-42-8-42s-6 3.5-6-3c-.5-5.25 2-3.5 7-5zM306 549c6.5 0 9.33-7 9 3 .5 5.5-5 3-5 3 1.25 11.5 2 45 2 45l-4 1s-1.25-31.25-4.75-44c-3.5-2.25-7 2.5-8.25-4 0-6.75 4.25-4.5 11-4zM242 549c3.67 0 10.17-8.33 11 2-.5 3.83-6 4-6 4-6 14.5-2 46-2 46h-3s-5-29.33-2-45c.28-1.48-7.67 3-8-3-.83-11.17 3.83-2.83 10-4z"/><path fill-rule="evenodd" fill="#52FFFF" opacity=".8" d="M290 260c1-11.75 17.5-2 18-14 .5-13.75 9-5.5 9-27 .5-54.25-48-58-48-58s-46.5-.75-49 52c-.5 19.25 8.5 24 7 34-.75 13.75 14.25-2 16 9-1.25 4.25 1.29 2.02 4.87 2.03 1.25-1.91 1.7.01 2.63.01 1.32 0 2.38-2.04 4.25.01 1.79 0 3.37-2.43 5.63-.01 4.87-2.29 4.4-.02 6.62-.03 4.12-1.63 4.74-.04 7-.08 2.03-.03 3.5-2.18 5.75-.11 2.25-1.57 3.46-.1 4.88-.17 3.29-.15 5.37 2.64 5.37 2.35zm-23-25c-4 .25-8.25 16.5-4 14 4.25-1.5 5.5-3.75 12 0 3.75 2.75-.75-13-8-14zm6-13c-.75-24.5 30-24.25 31 3-.5 19.25-29.75 10.25-31-3zm-42-9c-6.5 23.5 28 28.5 31 4 1.75-21.5-28-13.25-31-4z"/><path fill="#52FFFF" opacity=".8" d="M263 266c2.54.76 3-.12 3-.12s1.75-6.76-1-6.88c-4.12 0-4.5 6.25-2 7zM271.84 266c-2.54.76-3-.12-3-.12s-1.75-6.76 1-6.88c4.13 0 4.5 6.25 2 7zM277.84 265c-2.5.89-3.75-5.88-1-6 2.78.25 2.41 5.5 1 6zM280.91 268.69c.87-3.47-2.07-9.16.93-9.69 2.41 1.5 1.91 5.5-.93 9.69zM286.72 262.66c-1.81-.63-1.88-3.1-.88-3.66 2.28-.12 2.11 4.08.88 3.66zM255.61 266c2.2 1 3-.12 3-.12s1.75-6.76-1-6.88c-2.11.88-2.63 6.71-2 7zM252.44 267.75c-.1-4 2.47-7.19.17-8.75-4.55-.34-.95 9.19-.17 8.75zM247.78 262.38c1.64-.6 1.63-2.88.83-3.38-2.28-.12-2.06 3.82-.83 3.38zM263.27 269.25c2.54-.52 2 .08 2 .08s1.92 3.61 0 3.67c-4.13 0-4.51-3.24-2-3.75zM272.12 269.25c-1.43-.5-3 .08-3 .08s-.93 3.79 1 3.67c2.82 0 2.97-3.42 2-3.75zM278.31 270.25c-2.5-.6-3.19.08-3.19.08s-.75 2.58 2.01 2.67c2.78-.17 2.59-2.41 1.18-2.75zM282.91 269.34c-1.97.32-2.37 3.23-.78 3.66 2.29.08 2.06-3.83.78-3.66zM255.87 270.25c2.5-.61 4.01.08 4.01.08s.75 2.58-2.01 2.67c-2.78-.17-3.41-2.41-2-2.75zM252.12 269.28c1.85.28 2.34 3.29.75 3.72-2.29.08-2.03-3.89-.75-3.72zM242 543c-4.5-.83-9 2.17-3 3s7.4-2.19 3-3zM306 543c-4 1.25-8.5 2.75-2 3s6-4.25 2-3zM306.44 458.25c-2.27 6.35-.69 8.75 1.44 10.13 2.12 1.37.5-15.57-1.44-10.13zM317.69 474c3.06 1.19 3 6.19 1.31 6s-3.97-7.03-1.31-6zM320.62 481.56c2 1 2.5 4.5.82 4.32-1.69-.19-3.37-5.59-.82-4.32zM322.62 487.56c1.5 1.06 1.01 2.88.5 3.06-.68.26-1.48-3.75-.5-3.06zM323.69 474c3.06 1.19 3 6.19 1.31 6s-3.97-7.03-1.31-6zM326.62 481.56c2 1 2.5 4.5.82 4.32-1.69-.19-3.37-5.59-.82-4.32zM326.62 487.56c1.5 1.06 1.01 2.88.5 3.06-.68.26-1.48-3.75-.5-3.06zM309 453s7.5-.67 12.17 6.83c3 7.84 3.5 11.67 3.5 11.67-3 1.17-11.5-.17-11.5-.17C312.5 461 307.83 457.5 309 453zm6 9c-1.38.88.12 7.12 1 7 1.12-.12 0-7.12-1-7zm4 0c-1.38.88.12 5.12 1 5 1.12-.12 0-5.12-1-5zM309 477c-.17 3.5-.33 6.33 0 6s3.5.67 4-2-3.83-7.5-4-4zM307 470l4 1s.33 2.5-2 2c-1.17.33-2-3-2-3zM208.91 408.36c-.93-2.53-3-.92-2.91 0 .5 4.97 3.55 1.72 2.91 0zM313.93 399.34c-1.75-4.39-4.86-1.54-4.93 0-.1 2.41 5.72 2 4.93 0zM209 479c2.38-.59 2.06 4.69 1 5-1.53.45-3.35-4.41-1-5zM210 485c1.53-.31 1.25 3.44.72 3.59-1.53.45-2.52-3.22-.72-3.59zM211 490c1.53-.31 1.25 3.43.72 3.59-1.22.38-2.1-3.31-.72-3.59zM221.44 475c-1.53-.31-1.25 3.43-.72 3.59 1.22.38 2.1-3.31.72-3.59zM214 490c1.44-.25 1.25 2.43.72 2.59-1.22.38-1.64-2.43-.72-2.59zM217 477c1.81-.56 2.44 4.69 1 5-2.07.45-2.49-4.54-1-5zM213 479c1.56-.38 2.56 3.75.56 4-1.81.23-1.78-3.71-.56-4zM214 485c1.38 0 1.88 4.25 0 4-1.62-.22-1.56-4 0-4z"/><path fill-rule="evenodd" fill="#52FFFF" opacity=".8" d="M266.75 442.5C288 443 294 423 302 448c5.25 20.5-6.5 15.33-16 14 4.25 3.5 9.25 13-1 16-17 2.5-17-10-17-10s-8.75 11.5-20 9c-9.25-1.75 7-16 7-16s-29.5 16-27-2c4.5-36.5 18.25-16.5 38.75-16.5zm-8.25 24.67c-7.33 1.5-12.67 4.5-6 6.66 5.67 1.85 13.33-8.16 6-6.66zM276 467c8.5-1.5 13.87 4.63 10 7-5.17 3.17-19.36-5.35-10-7z"/><path fill="#52FFFF" opacity=".8" d="M255 341.33c4.77 2.03-6.85 12.3-18.5 15.67-8.49 2.45-13.33-4.17-13.5-7 1.17-2.17 5.29 5.02 14.25 2.25 9.24-2.86 16.1-11.62 17.75-10.92zM253.33 357.67c4.78 2.02-2.68 8.21-14.33 11.58-8.49 2.45-8.75-1.25-10.5-5.75-1.11-1.97 1.75 2.25 10.75 1 9.58-1.33 12.43-7.53 14.08-6.83zM253 371.33c4.77 2.03 2.26 5.33-9.25 9.17-5.25 1.75-8.5-1.78-9.75-4-1.11-1.97 1.29 1.77 10.25-1 9.24-2.86 7.1-4.87 8.75-4.17zM254 382c4.77 2.02 8.01 3.41-3.5 7.25-5.25 1.75-9.08-.86-10.33-3.08-1.11-1.97 4.33 1.08 8.33-.42 7.54-2.83 5.19-4.03 5.15-3.95-.01.01.07.08.35.2zM268.67 343.67c-4.78 2.02 3.81 9.96 15.46 13.33 8.49 2.45 13.33-4.17 13.5-7-1.17-2.17-5.29 5.02-14.25 2.25-9.24-2.86-13.06-9.28-14.71-8.58zM269.67 357c-4.78 2.02 3.31 8.88 14.96 12.25 8.49 2.45 8.75-1.25 10.5-5.75 1.11-1.97-1.75 2.25-10.75 1-9.58-1.33-13.06-8.2-14.71-7.5zM271 372c-4.77 2.02-2.63 4.66 8.88 8.5 5.25 1.75 8.5-1.78 9.75-4 1.11-1.97-1.29 1.77-10.25-1-9.24-2.86-6.73-4.2-8.38-3.5zM270.33 382.67c-4.77 2.02-8.71 2.74 2.8 6.58 5.25 1.75 9.08-.86 10.33-3.08 1.11-1.97-4.33 1.08-8.33-.42-7.7-2.89-4.58-3.6-4.49-3.32.02.05-.06.13-.31.24zM230 340c.75-3 24-9 24-9s-.21 2.86-6 7c-7 5-20.14 10.57-18 2zM251 322c-1.67 5-9.33 7.33-13 6-4.31-1.57 15-11.99 13-6zM233.03 329.94c.75 2.25-3.31 4.59-4.06 2.5-1.75-4.88 3.44-4.35 4.06-2.5zM219.03 331.94c.75 2.25-3.31 4.59-4.06 2.5-1.75-4.88 3.44-4.35 4.06-2.5zM224.94 333.86c.5 1.45-2.2 2.97-2.7 1.61-1.16-3.15 2.29-2.81 2.7-1.61zM225.94 328.86c.5 1.45-2.2 2.97-2.7 1.61-1.16-3.15 2.29-2.81 2.7-1.61zM317.96 451.57c.33.97-1.47 1.98-1.8 1.08-.78-2.1 1.53-1.88 1.8-1.08zM305.03 334.94c.75 2.25-3.31 4.59-4.06 2.5-1.75-4.88 3.44-4.35 4.06-2.5zM297.94 331.43c.5 2.42-2.2 4.95-2.7 2.69-1.16-5.25 2.29-4.68 2.7-2.69zM271 332c-3 6.67 22.81 16.56 19.5 13.25-3.5-3.5-17.9-16.81-19.5-13.25zM278 323c0 1.67 9.5 15.25 12.33 11.67C295.44 328.21 278 321.33 278 323z"/><path fill="#52FFFF" opacity=".8" d="M262 312c3.96-.09 8.89 5.85 5.38 12.88-3 6 .87 9.74-.13 12.24-4.75 7.26-1.5 12.63-2 16.63-.67 5.38-1.4 8.03-3.37 8-2.4-.04-3.96-5.84-4.13-10-.69-3.95 6.84-6.37.37-15-1.9-3.1 4.63-3.5-1.37-10.5-4.12-4.81 1.23-14.16 5.25-14.25zM262 366.33c5.83-2.16 4.17 4.84 0 4.67s-7.33-6 0-4.67zM263 376.33c4.33-1 1.15 4.1-.33 3.84-2.84-.5-4.5-4.84.33-3.84zM264 392.33c4.33-1 1.15 4.1-.33 3.84-2.84-.5-4.5-4.84.33-3.84zM264 400.33c4.33-1 1.15 4.1-.33 3.84-2.84-.5-4.5-4.84.33-3.84zM263.13 408.33c-4.34-1-1.16 4.1.33 3.84 2.83-.5 4.5-4.84-.33-3.84zM263.33 415.11c3.3-.75.88 3.08-.25 2.88-2.16-.37-3.43-3.63.25-2.88zM262.67 423.11c-3.3-.75-.88 3.08.25 2.88 2.16-.37 3.43-3.63-.25-2.88zM264 431.33c4.33-1 1.15 4.1-.33 3.84-2.84-.5-4.5-4.84.33-3.84zM265 439.33c4.33-1 1.15 4.1-.33 3.84-2.84-.5-4.5-4.84.33-3.84z"/><path fill="#0F0F19" d="M235 596l-3 1s2.67 9.5 2 14c0 0 2.94 14.97-3.39 29.83-.18.07-.39.12-.61.17-.25.97-.51 1.9-.79 2.81-.38.73-.78 1.46-1.21 2.19l.58-.25c-4.27 12.61-10.84 19.92-11.51 31.88-.09 1.56 1.05 5.25 5.05 5.11 8.63.14 26.4.94 36.51.01 4.12-.37 3.73-2.98 3.83-4.37 1.35-18.65-6.37-25.35-8.46-33.38-.1-.38-.2-.74-.3-1.1l.3.1s-8.83-16.5-1-47l-4-2-14 1zM396 670c-16.51-.33-67.99-7.95-77.5-33.97l.5-.03s-5.25-27 1-45l-5-1-13 1-5 2s5.63 48.57 5.94 48.36c.28 7.58-2.57 12.87.06 39.64h25s.5-8.83 1-12c14.33 4.5 26.67 13.83 64 9 0 0 2.83-6 3-8z"/></svg>